<svg xmlns="http://www.w3.org/2000/svg" viewBox="0 0 8 4.8"><title>arrow-down-light</title><g id="Layer_2" data-name="Layer 2"><g id="Layer_1-2" data-name="Layer 1"><g id="Layer_2-2" data-name="Layer 2"><g id="Layer_1-2-2" data-name="Layer 1-2"><g id="Icons"><g id="file-tray-arrow-left"><path id="Imported-Layers" d="M7.88.11A.44.44,0,0,0,7.58,0H.43a.43.43,0,0,0-.3.11A.37.37,0,0,0,0,.4.31.31,0,0,0,.08.63L.13.68l3.4,3.9A.67.67,0,0,0,4,4.8a.67.67,0,0,0,.48-.22L7.88.68l0-.08L8,.4A.37.37,0,0,0,7.88.11Z" style="fill:#fff"/></g></g></g></g></g></g></svg>