<svg xmlns="http://www.w3.org/2000/svg" viewBox="0 0 15.76 15.76"><title>html</title><g id="Layer_2" data-name="Layer 2"><g id="Layer_1-2" data-name="Layer 1"><path d="M14.76,0H1A1,1,0,0,0,0,1V14.76a1,1,0,0,0,1,1H14.76a1,1,0,0,0,1-1V1A1,1,0,0,0,14.76,0ZM2.26,13.41l.88-3.2a9.29,9.29,0,0,1,1.33,1,13.5,13.5,0,0,1,1.18,1.23Zm4-1.62A15,15,0,0,0,5.1,10.63a8.05,8.05,0,0,0-1.3-1s3.86-3.73,6-5.89a11.55,11.55,0,0,1,2.41,2C10,8.06,6.21,11.79,6.21,11.79Zm7.43-7.33-.84.82A14.12,14.12,0,0,0,10.42,3.2l.66-.68a1.07,1.07,0,0,1,1.46-.33,3.53,3.53,0,0,1,1.16,1A.83.83,0,0,1,13.64,4.45Z" style="fill:#b53f26"/></g></g></svg>